<?xml version="1.0" standalone="no"?>
<!DOCTYPE svg PUBLIC "-//W3C//DTD SVG 20010904//EN"
 "http://www.w3.org/TR/2001/REC-SVG-20010904/DTD/svg10.dtd">
<svg version="1.0" xmlns="http://www.w3.org/2000/svg"
 width="267.000000pt" height="267.000000pt" viewBox="0 0 267.000000 267.000000"
 preserveAspectRatio="xMidYMid meet">
<metadata>
Created by potrace 1.14, written by Peter Selinger 2001-2017
</metadata>
<g transform="translate(0.000000,267.000000) scale(0.100000,-0.100000)"
fill="#000000" stroke="none">
<path d="M100 2589 c0 -33 37 -153 78 -254 68 -169 167 -321 273 -420 177
-166 360 -223 603 -187 53 8 60 7 87 -15 15 -13 43 -56 62 -96 62 -131 77
-215 77 -418 l0 -159 -177 -2 c-202 -3 -194 1 -175 -92 14 -66 39 -206 62
-341 21 -119 21 -119 71 -125 l44 -5 0 -50 c-1 -27 -4 -101 -9 -163 -8 -116
-2 -142 30 -142 24 0 31 38 38 195 7 139 15 181 30 157 3 -5 6 -92 6 -193 1
-101 6 -191 11 -201 13 -24 46 -23 54 1 3 11 4 104 3 208 -3 162 -1 188 12
188 13 0 16 -32 20 -209 4 -188 7 -210 23 -220 14 -9 21 -7 32 7 11 15 13 63
12 218 -2 145 1 200 10 203 24 10 30 -23 32 -184 2 -170 7 -188 43 -169 16 8
18 28 20 182 3 145 5 172 18 172 12 0 16 -25 20 -145 l5 -145 25 0 25 0 3 142
3 143 31 8 c35 9 33 3 68 200 6 28 15 77 20 107 6 30 15 79 21 108 6 28 11 72
12 97 l2 45 -168 3 -168 2 6 48 c29 234 136 481 226 519 17 7 55 13 83 13 65
0 229 34 321 67 278 100 472 287 545 524 21 69 21 69 -194 69 -133 0 -213 -5
-264 -15 -311 -65 -491 -225 -558 -495 -7 -30 -13 -65 -14 -78 0 -13 -15 -42
-33 -65 -46 -57 -90 -132 -112 -190 -21 -56 -35 -69 -35 -32 0 37 -38 172 -65
232 -13 28 -42 78 -64 112 -40 59 -41 61 -41 148 0 146 -44 249 -149 354 -89
88 -162 136 -311 203 -91 40 -243 86 -385 115 -33 7 -78 17 -100 21 -22 5 -64
12 -92 15 -50 5 -53 4 -53 -16z m142 -111 c7 -7 40 -33 73 -59 33 -25 99 -75
147 -112 48 -36 135 -98 193 -137 167 -112 255 -182 333 -264 39 -42 72 -80
72 -85 0 -15 -105 -24 -189 -18 -91 8 -197 44 -267 93 -72 49 -168 149 -225
234 -93 141 -187 360 -153 360 1 0 9 -6 16 -12z m173 -8 c3 -5 16 -10 28 -10
30 0 217 -64 296 -102 193 -92 296 -193 360 -351 6 -15 11 -52 11 -80 l0 -53
-109 107 c-87 86 -146 132 -288 225 -98 64 -180 120 -183 123 -3 3 -39 32 -82
64 -101 76 -109 87 -70 87 17 0 34 -4 37 -10z m1935 -285 c-14 -8 -31 -14 -38
-15 -7 0 -32 -9 -54 -20 -23 -11 -46 -20 -50 -20 -19 0 -279 -135 -313 -163
-5 -4 -35 -26 -65 -48 -30 -22 -85 -70 -122 -106 -55 -54 -68 -62 -68 -45 0
54 57 158 129 235 53 55 82 77 155 112 50 24 116 49 146 56 30 6 69 15 85 20
17 4 73 7 125 8 87 0 93 -1 70 -14z m79 -92 c-43 -75 -167 -198 -250 -246 -70
-41 -195 -92 -274 -112 -67 -17 -204 -39 -210 -34 -6 7 43 59 115 120 100 87
209 154 384 234 54 26 260 102 265 99 2 -2 -12 -29 -30 -61z m-803 -1196 c-4
-34 -11 -78 -15 -97 -5 -19 -14 -69 -20 -110 -7 -41 -15 -86 -19 -100 l-7 -25
-241 -3 -240 -2 -13 67 c-7 38 -17 93 -23 123 -5 30 -14 74 -19 97 -10 47 -12
97 -3 105 3 3 140 6 306 7 l301 1 -7 -63z"/>
</g>
</svg>
